<?xml version="1.0" encoding="UTF-8" standalone="no"?>
<!-- Generator: Adobe Illustrator 24.0.0, SVG Export Plug-In . SVG Version: 6.00 Build 0)  -->

<svg
   xmlns:dc="http://purl.org/dc/elements/1.1/"
   xmlns:cc="http://creativecommons.org/ns#"
   xmlns:rdf="http://www.w3.org/1999/02/22-rdf-syntax-ns#"
   xmlns:svg="http://www.w3.org/2000/svg"
   xmlns="http://www.w3.org/2000/svg"
   xmlns:sodipodi="http://sodipodi.sourceforge.net/DTD/sodipodi-0.dtd"
   xmlns:inkscape="http://www.inkscape.org/namespaces/inkscape"
   version="1.1"
   id="Layer_1"
   x="0px"
   y="0px"
   viewBox="0 0 134.1 134.1"
   style="enable-background:new 0 0 134.1 134.1;"
   xml:space="preserve"
   sodipodi:docname="vidPlus-altered.svg"
   inkscape:version="0.92.4 (5da689c313, 2019-01-14)"><metadata
   id="metadata17"><rdf:RDF><cc:Work
       rdf:about=""><dc:format>image/svg+xml</dc:format><dc:type
         rdf:resource="http://purl.org/dc/dcmitype/StillImage" /><dc:title></dc:title></cc:Work></rdf:RDF></metadata><defs
   id="defs15" /><sodipodi:namedview
   pagecolor="#ffffff"
   bordercolor="#666666"
   borderopacity="1"
   objecttolerance="10"
   gridtolerance="10"
   guidetolerance="10"
   inkscape:pageopacity="0"
   inkscape:pageshadow="2"
   inkscape:window-width="1920"
   inkscape:window-height="1057"
   id="namedview13"
   showgrid="false"
   inkscape:zoom="1.7598806"
   inkscape:cx="67.050003"
   inkscape:cy="67.050003"
   inkscape:window-x="-8"
   inkscape:window-y="-8"
   inkscape:window-maximized="1"
   inkscape:current-layer="Layer_1" />
<style
   type="text/css"
   id="style2">
	.st0{fill:#00305E;}
	.st1{fill:#FFFFFF;}
</style>

<g
   id="g10">
	<path
   class="st1"
   d="M116.5,48.4c0-1.8-0.6-3.4-1.9-4.6c-2.7-2.7-6.8-2.6-9.6,0.1c-2.7,2.7-5.4,5.4-8.2,8.2v30.1   c2.7,2.7,5.5,5.5,8.2,8.2c2.1,2,4.6,2.6,7.2,1.5c2.7-1.1,4.1-3.2,4.2-6.1C116.6,73.3,116.5,60.8,116.5,48.4z"
   id="path6" />
	<path
   class="st1"
   d="M92.3,47.8c-0.1-2.5-1.2-4.5-2.9-6.3c-2.3-2.3-5.1-2.9-8.2-2.9c-10.2,0.1-20.3,0-30.5,0c-7.7,0-15.4,0-23.1,0   c-4.8,0-8.6,3-9.7,7.6c-0.2,0.9-0.3,1.8-0.3,2.7c0,12,0,24.1,0,36.1c0,3.6,1.4,6.5,4.4,8.6c2.1,1.4,4.4,1.7,6.8,1.7   c8.9,0,17.7,0,26.6,0c9,0,17.9,0,26.9,0c4.9,0,8.9-3.2,9.8-8c0.1-0.6,0.2-1.2,0.2-1.8V48.9C92.3,48.5,92.3,48.2,92.3,47.8z    M70.6,71.2h-11v11.1h-9.3V71.2h-11v-8.3h11V51.8h9.3v11.1h11V71.2z"
   id="path8" />
</g>
</svg>