<?xml version="1.0" encoding="utf-8"?>
<!-- Generator: Adobe Illustrator 21.0.2, SVG Export Plug-In . SVG Version: 6.00 Build 0)  -->
<svg version="1.1" id="Facebook" xmlns="http://www.w3.org/2000/svg" xmlns:xlink="http://www.w3.org/1999/xlink" x="0px" y="0px"
	 viewBox="0 0 128 128" style="enable-background:new 0 0 128 128;" xml:space="preserve">
<style type="text/css">
	.st0{fill:#00305E;}
	.st1{fill:#FFFFFF;}
</style>
<g>
	<circle id="facebook-back" class="st0" cx="64" cy="64" r="64"/>
	<path id="facebook-facebook" class="st1" d="M95.1,29H32.9c-2.1,0-3.9,1.7-3.9,3.9v62.3c0,2.1,1.7,3.9,3.9,3.9h33.5V71.9h-9.1V61.3
		h9.1v-7.8c0-9,5.5-14,13.6-14c3.9,0,7.2,0.3,8.2,0.4v9.4l-5.6,0c-4.4,0-5.2,2.1-5.2,5.1v6.7h10.5l-1.4,10.6h-9.1V99h17.8
		c2.1,0,3.9-1.7,3.9-3.9V32.9C99,30.7,97.3,29,95.1,29z"/>
</g>
</svg>
