<?xml version="1.0" encoding="UTF-8" standalone="no"?>
<!-- Generator: Adobe Illustrator 18.1.1, SVG Export Plug-In . SVG Version: 6.00 Build 0)  -->

<svg
   version="1.0"
   x="0px"
   y="0px"
   width="178.10001"
   height="47.025002"
   viewBox="-377 254 178.10001 47.025002"
   enable-background="new -377 254 198 53"
   xml:space="preserve"
   id="svg244"
   sodipodi:docname="hillsdale-college-logo-white.svg"
   inkscape:version="1.2.1 (9c6d41e410, 2022-07-14)"
   xmlns:inkscape="http://www.inkscape.org/namespaces/inkscape"
   xmlns:sodipodi="http://sodipodi.sourceforge.net/DTD/sodipodi-0.dtd"
   xmlns="http://www.w3.org/2000/svg"
   xmlns:svg="http://www.w3.org/2000/svg"><defs
   id="defs248" /><sodipodi:namedview
   id="namedview246"
   pagecolor="#ffffff"
   bordercolor="#000000"
   borderopacity="0.25"
   inkscape:showpageshadow="2"
   inkscape:pageopacity="0.0"
   inkscape:pagecheckerboard="0"
   inkscape:deskcolor="#d1d1d1"
   showgrid="false"
   inkscape:zoom="6.1111111"
   inkscape:cx="91.963636"
   inkscape:cy="26.590909"
   inkscape:window-width="2558"
   inkscape:window-height="1408"
   inkscape:window-x="1273"
   inkscape:window-y="1080"
   inkscape:window-maximized="0"
   inkscape:current-layer="svg244" />
<g
   id="Layer_1"
   transform="translate(-7,0.025)">
	<g
   id="g240">
		<g
   id="g204">
			<path
   fill="#ffffff"
   d="m -364.4,278.7 2,-0.8 -0.3,1.9 0.1,0.1 0.3,-2.2 -2.2,1 z m -0.9,0 0.7,0.3 c 0,-2.4 0.9,-3.9 2.5,-4.4 -1.8,0.1 -2.8,1.5 -3.2,4.1 z m 2.1,-5 c 0.1,0.1 0.1,0.2 0.2,0.2 -1.5,0.4 -2.5,1.8 -3,4.3 l 0.5,0.2 c 0.4,-2.9 1.9,-4.4 4.3,-4.5 -0.6,-0.1 -1.1,-0.1 -1.6,0 l 0.1,-0.3 c 0.3,-0.1 0.5,-0.1 0.7,-0.1 v -0.1 c 0.1,-0.7 -0.3,-1.1 -0.8,-0.8 -0.1,-0.4 0.1,-0.7 0.6,-0.8 0.4,0.1 0.6,0.4 0.5,0.8 0.3,0 0.5,0.2 0.6,0.6 0.4,0 0.6,0.2 0.7,0.7 0.6,0.4 0.9,1 1,1.9 l -0.1,1.5 c 0.2,1 -0.2,2 -1,3.1 -1.5,1.7 -3.7,1.5 -4.4,-0.9 l -0.8,0.3 -0.8,-0.4 V 279 l -0.7,-0.3 v -0.3 l 0.8,-0.4 c 0.3,-2.1 1.2,-3.4 3.2,-4.3 z"
   id="path2" />
			<path
   fill="#ffffff"
   d="m -356.4,254.2 v 4.4 c 0,0.2 -0.4,0.2 -0.4,0 v -4.4 c 0,-0.3 0.4,-0.3 0.4,0 z"
   id="path4" />
			<path
   fill="#ffffff"
   d="m -360.3,289.1 v 0.3 l 0.8,0.1 v -0.3 z m -3.5,1.2 v 0.3 l 0.8,0.1 v -0.3 z m -3.5,1.1 v 0.3 l 0.8,0.1 v -0.3 z m 8.3,4.1 v -4 c 0,-0.5 -0.1,-0.9 0.2,-1.1 0.3,-0.2 0.7,-0.3 0.8,0 -0.1,-0.3 -0.4,-0.4 -0.5,-0.4 -0.6,-0.1 -1.1,0.3 -1.1,1.3 v 4 l -0.4,-0.2 v -5 h -0.3 v 4.9 c -1.1,-0.6 -2.3,-1 -2.3,-1 v -1.2 c 0,-0.6 0,-0.9 0.3,-1.2 0.3,-0.2 0.5,-0.1 0.7,0.1 -0.1,-0.4 -0.4,-0.5 -0.7,-0.5 -0.4,0 -0.8,0.4 -0.8,1.3 v 1.3 l -0.3,-0.1 v -1.9 -0.4 h -0.3 v 0.4 1.7 c -1.3,-0.4 -2.1,-0.5 -2.1,-0.5 0,-0.5 0.2,-0.8 0.7,-0.7 -0.6,-0.3 -1,0 -1.1,0.6 l -0.5,-0.1 v -0.6 h -0.3 v 0.6 c 0,0 -0.3,0 -0.9,-0.1 v -0.3 l -0.6,-0.3 v -0.5 l 0.4,-0.1 11.4,-3.5 v 0.1 l 0.2,-0.1 v 0.2 0.6 0.4 l -0.1,0.2 0.1,0.2 v 7.5 c -1.5,-1.1 -2.5,-1.6 -2.5,-1.6 z"
   id="path6" />
			<path
   fill="#ffffff"
   d="m -355,285.9 -0.5,0.3 V 286 l -0.3,-0.1 v 0.2 l -0.2,0.2 v 0.2 l -0.2,0.1 c -0.2,-0.1 -0.2,-0.1 -0.2,-0.1 v 0.2 0.1 0.2 l -11.8,3.7 -0.2,-0.1 v -0.1 l 0.2,-0.1 v -0.6 l -1.2,-0.2 13.3,-4.3 z"
   id="path8" />
			<polygon
   fill="#ffffff"
   points="-362,268.4 -363.4,267.9 -363.6,267.7 -355.8,264.5 -356,265.2 -356,265.9 "
   id="polygon10" />
			<polygon
   fill="#ffffff"
   points="-349.6,280 -349.4,278.2 -351.1,277.9 -351.1,277.7 -349,278 -349.4,279.9 "
   id="polygon12" />
			<polygon
   fill="#ffffff"
   points="-352.6,277.7 -353.4,278 -354,277.6 -352.4,277.1 -351.2,277.4 -352,277.9 "
   id="polygon14" />
			<path
   fill="#ffffff"
   d="m -347.2,279.2 c -0.3,-3.3 -1.6,-4.3 -3.4,-4.3 1.6,-0.8 3.7,0.9 3.9,3.9 l 1.4,0.4 -0.5,0.4 z"
   id="path16" />
			<polygon
   fill="#ffffff"
   points="-351.5,276.9 -352.4,276.6 -354,277.2 -354.1,276.8 -354.4,276.4 -352.6,275.8 -352.4,276.2 -351.5,276.5 "
   id="polygon18" />
			<path
   fill="#ffffff"
   d="m -345.9,278.3 1.2,0.4 -0.6,0.2 -1.1,-0.3 c -0.6,-3.9 -3.6,-5.1 -5,-3.3 0.9,-2 4.7,-1.5 5.5,3 z"
   id="path20" />
			<path
   fill="#ffffff"
   d="m -348.2,275.6 -0.3,0.6 c -0.1,-0.1 -0.1,-0.2 -0.2,-0.2 l 0.3,-0.5 z"
   id="path22" />
			<path
   fill="#ffffff"
   d="m -347.5,277 -0.4,0.3 c 0,-0.1 -0.1,-0.2 -0.1,-0.3 l 0.4,-0.2 z"
   id="path24" />
			<path
   fill="#ffffff"
   d="m -347.2,278.8 -0.9,-0.2 c 0,-0.1 0,-0.2 0,-0.3 l 1,0.3 z"
   id="path26" />
			<path
   fill="#ffffff"
   d="m -350.8,276.6 -0.4,-0.4 0.1,-0.3 0.4,0.4 c -0.1,0.1 -0.1,0.2 -0.1,0.3 z"
   id="path28" />
			<path
   fill="#ffffff"
   d="m -348.1,281 -0.3,-0.6 0.2,-0.1 0.3,0.6 c 0,0.1 0,0.1 -0.2,0.1 z"
   id="path30" />
			<path
   fill="#ffffff"
   d="m -349.1,281.2 v -1.3 c 0.1,0 0.1,0 0.2,0 l 0.1,1.3 c -0.1,0.1 -0.2,0.1 -0.3,0 z"
   id="path32" />
			<path
   fill="#ffffff"
   d="m -350.6,278.9 -0.6,0.4 c -0.1,-0.1 -0.1,-0.2 -0.1,-0.3 l 0.6,-0.4 c 0.1,0.1 0.1,0.2 0.1,0.3 z"
   id="path34" />
			<path
   fill="#ffffff"
   d="m -350.4,277.8 -0.8,-0.3 v -0.3 l 0.8,0.3 c 0,0.1 0,0.2 0,0.3 z"
   id="path36" />
			<path
   fill="#ffffff"
   d="m -347.4,280.2 -0.5,-0.5 c 0,-0.1 0.1,-0.2 0.1,-0.3 l 0.5,0.5 c 0.1,0.1 0,0.2 -0.1,0.3 z"
   id="path38" />
			<path
   fill="#ffffff"
   d="m -350.5,275.9 -0.4,-0.8 0.2,-0.2 0.4,0.8 c -0.1,0 -0.1,0.1 -0.2,0.2 z"
   id="path40" />
			<path
   fill="#ffffff"
   d="m -349.8,276.1 -0.2,-1.3 h 0.3 l 0.2,1.4 c -0.1,0 -0.1,0 -0.2,0 0,-0.1 0,-0.1 -0.1,-0.1 z"
   id="path42" />
			<path
   fill="#ffffff"
   d="m -349.9,279.9 -0.3,0.7 -0.2,-0.2 0.4,-0.7 c 0,0 0.1,0.1 0.1,0.2 z"
   id="path44" />
			<polygon
   fill="#ffffff"
   points="-354.5,283.9 -354.4,281.9 -353.7,281.7 -353.7,283.7 -353,284 -353,283.1 -351.9,282.7 -352,285.1 -353.6,284.6 -353.6,284.1 -355,284.6 -356.1,284.1 -356.1,281.8 -355.2,281.6 -355.2,283.6 "
   id="polygon46" />
			<polygon
   fill="#ffffff"
   points="-354.7,285 -353.6,284.6 -353.6,285.3 -354.9,285.7 -354.9,285.3 -356.8,284.5 -356.5,284.3 -354.9,284.9 "
   id="polygon48" />
			<polygon
   fill="#ffffff"
   points="-343.4,288.3 -342.3,288.7 -342,288.3 -343.1,287.9 -343.3,288.1 -347.4,283.6 -347.4,283.3 -351.9,284.8 -353.5,284.2 -353.6,284.6 -351.8,285.2 -347.5,283.8 "
   id="polygon50" />
			<path
   fill="#ffffff"
   d="m -347.8,284.7 0.1,-0.4 3.9,4.2 -0.9,-0.4 z"
   id="path52" />
			<path
   fill="#ffffff"
   d="m -353.1,274.7 c -0.4,0.4 -0.7,1.1 -0.8,1.6 l 1.3,-0.5 0.7,0.2 c -0.1,-1 0.5,-1.8 1.3,-2.2 z"
   id="path54" />
			<polygon
   fill="#ffffff"
   points="-352.5,288.7 -352.6,288.9 -352.9,289.4 -353.6,289.1 -353.6,298.8 -354.2,298.5 -354.2,290 -354.2,289.9 -354.1,289.7 -354.1,289.3 -354.8,288.6 -354.8,288.4 -353.7,288.1 -353.7,288.3 "
   id="polygon56" />
			<path
   fill="#ffffff"
   d="m -352.3,289.9 c 0.6,-0.3 1.1,0.1 1.2,1.2 v 8.8 l -0.5,-0.2 v -8.6 c -0.1,-0.9 -0.3,-1.2 -0.7,-1.2 z"
   id="path58" />
			<path
   fill="#ffffff"
   d="m -348.7,273.7 v 0 c 1.6,0.5 2.9,2.2 3.2,4.1 l 0.9,0.3 -0.2,0.1 -0.9,-0.2 c -0.2,-1.5 -1.4,-3.5 -3.1,-4.1 0.1,-0.1 0.1,-0.1 0.1,-0.2 z m -4.4,0.8 2.4,-0.9 c 0.5,-0.2 1,-0.2 1.5,-0.1 v 0.1 0.1 c -0.5,-0.1 -0.9,-0.1 -1.4,0.1 l -2.7,1.1 z"
   id="path60" />
			<path
   fill="#ffffff"
   d="m -349.8,272.8 c -0.2,0.6 0,0.8 0.7,0.7 -0.1,0.2 0,0.4 0.2,0.6 -0.3,0 -0.5,-0.1 -0.5,-0.3 -0.7,0 -1,-0.5 -0.4,-1 z"
   id="path62" />
			<path
   fill="#ffffff"
   d="m -348.6,271.2 c -0.2,0.1 -0.4,0.2 -0.4,0.4 -0.3,0 -0.4,0.2 -0.4,0.4 -0.5,0.1 -0.7,0.2 -0.6,0.4 -0.4,0.2 -0.5,0.5 -0.5,0.8 -0.4,-0.1 -0.6,0 -0.6,0.5 l -0.5,0.3 c -0.1,-0.5 0.2,-0.8 0.8,-1 0.1,-0.5 0.4,-0.9 0.9,-1.1 0.2,-0.5 0.9,-0.8 1.3,-0.7 z"
   id="path64" />
			<path
   fill="#ffffff"
   d="m -351.6,280 v -0.4 l -0.2,-0.4 -0.2,-0.2 v -0.6 l -0.1,-0.7 h 0.2 c 0.4,2.5 2.7,4.6 4.3,3.5 -0.9,1.3 -2.8,0.8 -4,-1.2 z"
   id="path66" />
			<path
   fill="#ffffff"
   d="m -350.9,268.3 v 0.3 c 0.8,0.9 1.4,1.7 2,2.6 l -0.4,0.1 c -0.6,-1 -1.4,-1.8 -2.1,-2.7 l 0.2,-0.5 z"
   id="path68" />
			<path
   fill="#ffffff"
   d="m -348,272.3 c 0.8,1.1 1.6,2.7 2.1,4.2 l -0.8,-1.2 c -0.4,-1 -0.6,-1.1 -1.1,-2 -0.2,-0.3 0.1,-0.5 -0.1,-0.7 z"
   id="path70" />
			<path
   fill="#ffffff"
   d="m -352.2,283 -0.7,0.1 c -0.1,-0.3 -0.2,-0.5 -0.1,-0.8 0.1,-0.2 0.2,-0.4 0.6,-0.6 0,-0.3 -0.1,-0.5 -0.4,-0.7 -0.5,0 -0.8,-0.6 -0.4,-1.1 l -0.2,-0.2 0.2,-0.2 -0.2,-0.2 0.1,-0.2 -0.1,-1.1 0.7,-0.2 v 1.1 l -0.1,0.1 0.2,0.2 -0.2,0.2 0.2,0.3 c -0.4,0.3 -0.4,1.3 0.6,1.1 0.1,0 -0.3,0.1 -0.2,0.2 0.2,0.1 0.2,0.4 0.3,0.7 -0.5,0 -0.7,0.8 -0.3,1 z"
   id="path72" />
			<path
   fill="#ffffff"
   d="m -348.7,283.8 c -0.1,-0.3 -0.2,-0.6 -0.1,-1 -0.7,0 -1.6,-0.2 -1.9,-0.7 0,-0.1 0,-0.4 0,-0.4 0.6,0.6 1.9,0.8 2.4,0.7 -0.2,0.5 -0.2,1 0,1.4 z"
   id="path74" />
			<polygon
   fill="#ffffff"
   points="-346.7,280.7 -346.8,280.4 -346.7,279.3 -346.2,279.4 -345.9,281.8 -346.8,281.4 -346.6,281.1 -346.9,280.9 "
   id="polygon76" />
			<path
   fill="#ffffff"
   d="m -347.3,283.4 c -0.1,-0.5 0,-1 0.2,-1.2 -0.2,0.5 0.8,0.7 0.9,0.3 0.1,-0.5 -0.1,-0.8 -0.6,-1.1 l 0.3,-0.1 c 0.5,0.3 0.5,0.8 0.4,1.4 -0.1,0.4 -0.4,0.6 -0.9,0.6 -0.1,0 -0.1,0.2 0,0.4 0,0 -0.3,-0.3 -0.3,-0.3 z"
   id="path78" />
			<polygon
   fill="#ffffff"
   points="-343.2,286.5 -343.7,287.2 -345.3,285.4 -345.6,285.1 -343.7,285.8 -343.8,286.3 "
   id="polygon80" />
			<path
   fill="#ffffff"
   d="m -345.3,279.3 c 0.2,0.8 0.3,2.7 0.3,3.3 l 0.1,2.8 h -0.3 l -0.1,-2.8 c 0,-0.6 -0.2,-2.4 -0.3,-3.2 z"
   id="path82" />
			<path
   fill="#ffffff"
   d="m -346.3,279.3 0.5,0.2 c 0.2,1.6 0.4,3.6 0.3,5.8 l -0.6,-0.7 c 0.2,-2.2 0,-4.2 -0.2,-5.3 z"
   id="path84" />
			<polygon
   fill="#ffffff"
   points="-353.9,286.7 -354.3,286.8 -354.3,286.5 -353.9,286.4 -353.7,286.4 -353.6,286.7 "
   id="polygon86" />
			<polygon
   fill="#ffffff"
   points="-353.6,287.7 -353.6,288.1 -353.7,288.1 -354.5,288.3 -354.5,287.9 -354.7,287.8 -354.7,287.6 -353.7,287.3 -353.7,287.5 -343,291.3 -343.2,291.4 "
   id="polygon88" />
			<polygon
   fill="#ffffff"
   points="-354.5,287.6 -353.7,287.6 -343,291.3 -343.1,290.9 -342.9,290.8 -353.5,287 -353.4,286.8 -354.8,287 -354.8,287.2 -354.5,287.3 "
   id="polygon90" />
			<polygon
   fill="#ffffff"
   points="-352.6,288.7 -352.6,288.9 -350.6,289.7 -350.3,289.4 -352.4,288.7 -352.4,288.8 "
   id="polygon92" />
			<path
   fill="#ffffff"
   d="m -349.2,291 c 0.6,-0.3 1.1,0.1 1.2,1.2 v 8.8 l -0.6,-0.2 v -8.5 c -0.1,-1 -0.2,-1.3 -0.6,-1.3 z"
   id="path94" />
			<polygon
   fill="#ffffff"
   points="-349.3,290 -349.3,290.1 -347.8,290.7 -347.4,290.4 -349,289.9 -349,290.1 "
   id="polygon96" />
			<path
   fill="#ffffff"
   d="m -346.3,292 c 0.6,-0.3 1.1,0.1 1.2,1.2 v 7.8 h -0.5 l -0.1,-7.7 c 0,-1 -0.2,-1.3 -0.6,-1.3 z"
   id="path98" />
			<polygon
   fill="#ffffff"
   points="-346.4,291 -346.4,291.2 -344.7,291.7 -344.3,291.5 -346,290.9 -346.1,291.1 "
   id="polygon100" />
			<polygon
   fill="#ffffff"
   points="-349.2,290 -349.3,290.1 -349.7,290.5 -350.1,290.4 -350.1,300.3 -350.5,300.2 -350.5,290.5 -350.9,289.9 -350.9,289.8 -350.3,289.4 -350.3,289.6 "
   id="polygon102" />
			<polygon
   fill="#ffffff"
   points="-346.4,291 -346.4,291.2 -346.9,291.5 -347.2,291.4 -347.2,301 -347.7,301 -347.6,291.5 -348,291 -348,290.8 -347.4,290.4 -347.4,290.6 "
   id="polygon104" />
			<polygon
   fill="#ffffff"
   points="-343.3,292 -343.3,292.2 -343.8,292.6 -344.2,292.5 -344.2,293 -344.3,293.1 -344.2,293.3 -344.2,301 -344.6,301 -344.6,292.6 -344.9,292 -344.9,291.9 -344.3,291.5 -344.3,291.7 "
   id="polygon106" />
			<path
   fill="#ffffff"
   d="m -352.8,268.9 c 1.6,0.8 2.6,1.9 3.2,2.7 l -0.5,0.4 c -0.8,-1.2 -2,-2.3 -3,-2.6 -1.1,0.4 -1.6,1.3 -1.7,2.2 0,-1.4 0.8,-2.5 2,-2.7 z"
   id="path108" />
			<polygon
   fill="#ffffff"
   points="-355.7,264.1 -363.7,267.5 -364.2,267.1 -364.2,266.9 -355.8,263.3 -348.6,266.4 -348.5,266.7 -355.8,263.7 "
   id="polygon110" />
			<polygon
   fill="#ffffff"
   points="-355.8,265.2 -355.1,264.9 -355.2,265.2 -355.4,265.3 -355.6,265.8 -355.8,265.8 "
   id="polygon112" />
			<polygon
   fill="#ffffff"
   points="-355.9,266.2 -351.1,268.2 -350.9,269 -356,267 "
   id="polygon114" />
			<path
   fill="#ffffff"
   d="m -355.8,261.3 2.1,0.9 v 2.1 l -0.5,-0.3 -0.2,-1.3 c -0.7,-0.4 -1.2,-0.1 -1.4,0 z"
   id="path116" />
			<polygon
   fill="#ffffff"
   points="-353.1,264.5 -353.1,262 -352.1,261.5 -356.5,259.5 -356.5,259 -356.6,258.8 -351.6,261.1 -351.6,260.7 -356.6,258.5 -361.7,260.8 -361.6,261 -361.2,261.1 -361,261.4 -359.8,262.1 -359.8,265.2 -356.3,263.7 -356.4,260.5 -353.4,261.9 -353.4,264.4 "
   id="polygon118" />
			<polygon
   fill="#ffffff"
   points="-359.7,258 -359.7,260.2 -359.9,260.2 -359.9,258 "
   id="polygon120" />
			<polygon
   fill="#ffffff"
   points="-358.7,257.4 -358.7,259.7 -358.9,259.7 -358.9,257.4 "
   id="polygon122" />
			<polygon
   fill="#ffffff"
   points="-357.6,256.9 -357.6,259.1 -357.8,259.1 -357.8,256.9 "
   id="polygon124" />
			<path
   fill="#ffffff"
   d="m -356.7,258.6 v -2.1 l -4.1,2.1 v 2.2 h -0.2 v -2.3 c 0,0 0,-0.1 0.1,-0.1 l 4.3,-2.2 c 0.1,0 0.1,0 0.1,0.1 v 2.2 h -0.2 z"
   id="path126" />
			<polygon
   fill="#ffffff"
   points="-353.3,257.8 -353.3,260 -353.5,260 -353.5,257.8 "
   id="polygon128" />
			<polygon
   fill="#ffffff"
   points="-354.4,257.3 -354.4,259.5 -354.6,259.5 -354.6,257.3 "
   id="polygon130" />
			<polygon
   fill="#ffffff"
   points="-355.5,256.8 -355.5,259 -355.7,259 -355.7,256.8 "
   id="polygon132" />
			<path
   fill="#ffffff"
   d="m -356.7,258.6 v -2.3 c 0,-0.1 0.1,-0.1 0.1,-0.1 l 4.3,1.9 0.1,0.1 v 2.2 h -0.2 v -2.1 l -4.1,-1.8 v 2.1 z"
   id="path134" />
			<path
   fill="#ffffff"
   d="m -356.6,258.5 2,0.9 2.2,-1.2 c 0.1,0 0.1,0 0.1,0.1 v 2.2 h -0.2 v -2.1 l -2.1,1.2 h -0.1 l -2.1,-0.9 z"
   id="path136" />
			<path
   fill="#ffffff"
   d="m -356.6,258.6 -1.9,1 h -0.1 l -2.3,-0.9 v 2.1 h -0.1 v -2.3 c 0,-0.1 0.1,-0.1 0.1,-0.1 l 2.3,1 1.8,-0.9 z"
   id="path138" />
			<path
   fill="#ffffff"
   d="m -355.7,262.8 c 0.5,-0.8 1.6,-0.3 1.5,0.6 v 0.7 l -0.6,-0.2 v -0.7 c -0.2,-0.5 -0.5,-0.6 -0.9,-0.4 z"
   id="path140" />
			<path
   fill="#ffffff"
   d="m -356.4,261.5 7,3.1 0.1,0.1 v 1.5 h -0.2 v -1.5 l -6.9,-3 z"
   id="path142" />
			<path
   fill="#ffffff"
   d="m -356.4,261.5 7,3.1 c 0.1,0 0.1,0.1 0,0.2 l -2.1,0.7 -0.1,-0.2 1.8,-0.6 -6.8,-3 z"
   id="path144" />
			<polygon
   fill="#ffffff"
   points="-354.6,262.3 -354.6,264 -354.8,264 -354.8,262.3 "
   id="polygon146" />
			<polygon
   fill="#ffffff"
   points="-352.5,263.2 -352.5,264.8 -352.7,264.8 -352.7,263.2 "
   id="polygon148" />
			<polygon
   fill="#ffffff"
   points="-351.5,263.7 -351.5,265.3 -351.7,265.3 -351.7,263.7 "
   id="polygon150" />
			<polygon
   fill="#ffffff"
   points="-350.4,264.1 -350.4,265.7 -350.6,265.7 -350.6,264.1 "
   id="polygon152" />
			<path
   fill="#ffffff"
   d="m -356.4,261.6 -6.9,3 v 1.9 h -0.2 v -1.9 c 0,0 0,-0.1 0.1,-0.1 l 6.9,-3 z"
   id="path154" />
			<path
   fill="#ffffff"
   d="m -356.4,261.6 -6.7,3 2.2,1 -0.1,0.2 -2.4,-1.1 c -0.1,0 -0.1,-0.1 0,-0.2 l 6.9,-3 z"
   id="path156" />
			<polygon
   fill="#ffffff"
   points="-362.2,264.2 -362.2,266.3 -362.4,266.3 -362.4,264.2 "
   id="polygon158" />
			<polygon
   fill="#ffffff"
   points="-361.2,263.7 -361.2,265.8 -361.3,265.8 -361.3,263.7 "
   id="polygon160" />
			<polygon
   fill="#ffffff"
   points="-360.1,263.3 -360.1,265.4 -360.3,265.4 -360.3,263.3 "
   id="polygon162" />
			<polygon
   fill="#ffffff"
   points="-356.7,284.2 -356.7,281.7 -356.7,281.5 -357.9,281.8 -357.9,282.1 -357.9,284.4 "
   id="polygon164" />
			<polygon
   fill="#ffffff"
   points="-363.6,283.1 -368.4,287.8 -370,288.3 -370,288.6 -369.8,288.7 -369.8,289.4 -356.7,285.2 -356.6,284.5 -356.5,284.3 -356.5,283.9 -358.3,284.5 "
   id="polygon166" />
			<polygon
   fill="#ffffff"
   points="-362.5,283.1 -358.8,282.1 -358.8,282.7 -358.8,284.1 "
   id="polygon168" />
			<polygon
   fill="#ffffff"
   points="-368.3,285.8 -367,285.4 -366.9,286 -367.9,287 -367.9,286.7 -368,286.6 -368.6,286.6 -368.6,286.4 -368.3,286.1 "
   id="polygon170" />
			<polygon
   fill="#ffffff"
   points="-358.4,276.6 -356.9,277.2 -357.4,277.6 -358.7,277.1 -360.1,277.3 -359.8,276.7 -359.6,275.7 -358.4,275.3 -358.4,275.7 -356.7,276.4 -357.1,276.8 -358.4,276.2 "
   id="polygon172" />
			<path
   fill="#ffffff"
   d="m -356.8,276.4 -0.3,0.4 v 0.3 l -0.6,0.4 v 0.4 l -0.1,0.2 -0.2,0.2 c 0,0 0.2,0.1 0.2,0.2 0,0 -0.1,0.1 -0.1,0.2 0,0.1 0.2,0.1 0.2,0.1 0,0.1 -0.1,0.2 -0.1,0.2 0.3,0.2 0.4,0.5 0.1,0.9 0.1,0.7 -0.3,1 -1,1 -0.1,0.1 -0.1,0.3 -0.1,0.4 0.5,-0.1 0.8,0.3 0.9,0.6 l 1.1,-0.3 0.5,0.2 -0.1,-7.4 c -0.1,-1.9 -0.3,-2.7 -0.5,-3.1 -0.4,-0.9 -1.2,-1.5 -2.2,-1.8 -0.8,0.3 -2.1,1.1 -2.9,2.4 0.1,0.1 0.1,0.1 0.1,0.1 0.3,0.1 0.5,0.3 0.6,0.6 0.2,0.1 0.3,0.2 0.4,0.4 0.5,0.1 0.8,0.4 0.9,1 0.9,0.1 1.7,0.4 1.9,1.5 l 1.2,0.5 z"
   id="path174" />
			<path
   fill="#ffffff"
   d="m -366.3,285.3 c -0.1,-2.2 0,-4 0.3,-5.5 l 0.2,0.1 h 0.1 l 0.1,0.3 -0.1,0.2 0.2,0.2 -0.2,0.2 0.1,0.3 c -0.2,0.2 -0.2,0.5 0,0.9 -0.2,0.3 -0.2,1.2 0.6,1.1 v 0.2 c -0.9,0.1 -0.7,1 -0.4,1.2 z"
   id="path176" />
			<path
   fill="#ffffff"
   d="m -367.1,278.9 0.4,0.2 v 0.3 l 0.1,0.1 c -0.4,2 -0.5,4.1 -0.3,6 l -0.5,0.2 c -0.3,-2.2 -0.2,-4.7 0.3,-6.8 z"
   id="path178" />
			<path
   fill="#ffffff"
   d="m -365,275 -1.4,2.7 -0.5,0.2 c 0.6,-1.9 1.5,-3.6 2.5,-5.5 -0.1,0.4 -0.1,0.6 0,0.8 -0.1,0.1 -0.2,0.3 -0.2,0.7 -0.4,0.1 -0.6,0.4 -0.5,0.9 z"
   id="path180" />
			<path
   fill="#ffffff"
   d="m -363.4,270.9 1.5,-2.1 v -0.1 l 5.9,-2.5 0.1,0.1 v 0.4 0.4 c 0.5,5 0.7,10.1 0.7,14.6 l -0.7,0.2 c 0.1,-2.5 -0.1,-5.7 -0.2,-8.7 -0.1,-2.7 -1.5,-4.2 -3.5,-4.4 -1.1,0.5 -1.8,1.3 -3.1,2.5 l -0.3,-0.2 z"
   id="path182" />
			<path
   fill="#ffffff"
   d="m -363.2,272.9 c 0,0.3 -0.1,0.7 0,0.8 l -0.5,0.3 c -0.4,-0.3 -0.6,-0.9 -0.5,-1.7 0,-0.3 0.1,-0.5 0.4,-0.7 0,-0.3 0.1,-0.5 0.2,-0.6 0,0.6 0.1,1.1 0.3,1.6 0,0.1 -0.6,0.1 -0.5,0.8 0,-0.3 0.3,-0.5 0.6,-0.5 z"
   id="path184" />
			<path
   fill="#ffffff"
   d="m -365.4,279.9 0.2,0.3 -0.1,0.2 0.1,0.2 -0.1,0.3 0.1,0.3 c -0.3,0.3 -0.3,0.5 0,0.8 -0.2,0.5 -0.2,1.2 0.6,1 l 0.1,-0.1 v 0.5 c -0.7,0.1 -1,0.5 -0.8,0.9 l 1.5,-1.5 -0.1,-0.7 0.3,-0.4 c -0.9,-0.4 -1.4,-1 -1.7,-1.9 z"
   id="path186" />
			<path
   fill="#ffffff"
   d="m -360.5,282.6 -1.7,0.5 -0.9,-0.2 v -0.8 c 0.2,0 0.3,-0.2 0.4,-0.4 0.7,0.1 1.4,-0.1 2.2,-0.7 -0.1,0.4 -0.2,1.3 0,1.6 z"
   id="path188" />
			<path
   fill="#ffffff"
   d="m -359.8,280 c -0.5,0.7 -0.6,1.5 -0.3,2.5 l 1.3,-0.4 c 0.3,-0.5 -0.3,-0.8 -0.7,-0.4 -0.1,-0.3 -0.2,-0.9 0.3,-1.5 v 0.5 c 0.6,0.2 1.1,-0.6 0.7,-1.1 l 0.1,-0.6 -0.2,-0.2 0.2,-0.2 -0.2,-0.1 0.1,-0.2 V 277 l -0.9,0.2 0.1,1.4 -0.1,0.3 v 0.4 z"
   id="path190" />
			<polygon
   fill="#ffffff"
   points="-368.5,290.7 -356.5,287.1 -356.5,287.5 -356.5,287.7 -368.2,291.3 -368.5,291.3 -368.5,291.2 -368.5,291.1 "
   id="polygon192" />
			<polygon
   fill="#ffffff"
   points="-356.5,288.3 -355.5,288.5 -355.9,289 -356.5,289 "
   id="polygon194" />
			<path
   fill="#ffffff"
   d="m -356.6,289.5 v 0.1 z"
   id="path196" />
			<path
   fill="#ffffff"
   d="m -356.6,289.4 0.1,-0.1 z"
   id="path198" />
			<polygon
   fill="#ffffff"
   points="-353.2,286.9 -353.2,286.1 -353.4,286 -353.4,286.8 -353.9,287 -353.9,286.5 -354.3,286.5 -354.6,286.2 -354.7,286 -354.9,285.7 -353.6,285.2 -342.4,289.3 -342.3,289.4 -342.5,289.6 -342.8,289.5 -342.8,289.6 -343.2,289.7 -343.4,290.3 -343.7,290.3 -343.5,289.4 -343.3,289.3 -352.5,285.9 -352.5,286 -352.9,286.3 -353,286.8 "
   id="polygon200" />
			<polygon
   fill="#ffffff"
   points="-355.8,264.5 -355.7,264.2 -349,267.1 -350.9,268.1 -350.9,268 -350.8,268 -350.6,267.6 -350.2,267.4 -350.1,267.2 -355.1,264.9 -355.8,265.8 -356,265.9 -356.1,265.2 "
   id="polygon202" />
		</g>
		<g
   id="g238">
			<path
   fill="#ffffff"
   d="m -329.3,281.7 v -2.8 c 0,-2.1 -0.2,-2.3 -1.7,-2.5 v -0.3 h 5 v 0.3 c -1.6,0.2 -1.8,0.4 -1.8,2.5 v 6.9 c 0,2.1 0.2,2.3 1.7,2.5 v 0.3 h -5.1 v -0.3 c 1.7,-0.2 1.9,-0.4 1.9,-2.5 v -3.5 h -6.8 v 3.5 c 0,2.1 0.2,2.3 1.7,2.5 v 0.3 h -5 v -0.3 c 1.6,-0.2 1.7,-0.4 1.7,-2.5 v -6.9 c 0,-2.1 -0.2,-2.3 -1.8,-2.5 v -0.3 h 5 v 0.3 c -1.5,0.2 -1.7,0.4 -1.7,2.5 v 2.8 c 0,0 6.9,0 6.9,0 z"
   id="path206" />
			<path
   fill="#ffffff"
   d="m -322.2,286.6 c 0,1.4 0.1,1.5 1.3,1.8 v 0.3 h -4.1 v -0.3 c 1.2,-0.2 1.3,-0.3 1.3,-1.8 v -4.5 c 0,-1.5 -0.1,-1.5 -1.3,-1.8 V 280 h 4.1 v 0.3 c -1.2,0.2 -1.3,0.3 -1.3,1.8 0,0 0,4.5 0,4.5 z"
   id="path208" />
			<path
   fill="#ffffff"
   d="m -319.8,288.6 v -0.3 c 1.3,-0.2 1.4,-0.3 1.4,-1.8 V 282 c 0,-1.5 -0.1,-1.5 -1.3,-1.8 V 280 h 4.2 v 0.3 c -1.3,0.2 -1.4,0.3 -1.4,1.8 v 4.7 c 0,0.8 0.1,1.1 0.4,1.3 0.3,0.1 0.7,0.2 1.3,0.2 0.8,0 1.4,-0.3 1.8,-0.6 0.3,-0.3 0.5,-0.7 0.9,-1.3 l 0.3,0.1 c -0.1,0.5 -0.4,1.9 -0.5,2.3 h -7.1 z"
   id="path210" />
			<path
   fill="#ffffff"
   d="m -311.7,288.6 v -0.3 c 1.3,-0.2 1.4,-0.3 1.4,-1.8 V 282 c 0,-1.5 -0.1,-1.5 -1.3,-1.8 V 280 h 4.2 v 0.3 c -1.3,0.2 -1.4,0.3 -1.4,1.8 v 4.7 c 0,0.8 0.1,1.1 0.4,1.3 0.3,0.1 0.7,0.2 1.3,0.2 0.8,0 1.4,-0.3 1.8,-0.6 0.3,-0.3 0.5,-0.7 0.9,-1.3 l 0.3,0.1 c -0.1,0.5 -0.4,1.9 -0.5,2.3 h -7.1 z"
   id="path212" />
			<path
   fill="#ffffff"
   d="m -303.2,285.9 c 0.5,1 1.4,2.5 2.8,2.5 0.9,0 1.6,-0.6 1.6,-1.6 0,-1.2 -1.1,-1.7 -1.9,-2 -0.9,-0.4 -2.4,-1 -2.4,-2.4 0,-1.5 1.2,-2.6 3,-2.6 0.8,0 1.5,0.3 1.9,0.3 0.1,0.6 0.2,1.2 0.3,2.1 h -0.3 c -0.4,-1.1 -1.1,-2.1 -2.3,-2.1 -0.9,0 -1.5,0.6 -1.5,1.4 0,1.1 1,1.5 1.9,1.8 1.2,0.4 2.6,1.1 2.6,2.7 0,1.6 -1.4,2.7 -3.2,2.7 -1.2,0 -2.1,-0.5 -2.4,-0.7 -0.1,-0.3 -0.3,-1.4 -0.4,-2.2 z"
   id="path214" />
			<path
   fill="#ffffff"
   d="m -292.1,280 c 1.6,0 3,0.3 4,1.2 0.7,0.6 1.2,1.6 1.2,2.8 0,3.2 -2.6,4.6 -5.6,4.6 h -3.7 v -0.3 c 1.3,-0.2 1.4,-0.3 1.4,-1.8 V 282 c 0,-1.5 -0.1,-1.5 -1.3,-1.8 V 280 Z m -1.4,6.6 c 0,1.3 0.2,1.6 1.4,1.6 2.4,0 3.5,-1.5 3.5,-3.8 0,-2.9 -1.4,-4 -3.7,-4 -0.5,0 -0.9,0.1 -1,0.2 -0.1,0.1 -0.1,0.3 -0.1,0.6 v 5.4 z"
   id="path216" />
			<path
   fill="#ffffff"
   d="m -281.2,288.4 0.4,-0.1 c 0.5,-0.1 0.7,-0.3 0.3,-1.2 l -0.7,-1.6 h -2.8 c -0.1,0.4 -0.4,1.3 -0.6,1.9 -0.2,0.7 0,0.8 0.5,1 l 0.5,0.1 v 0.3 h -3.3 v -0.3 c 0.9,-0.2 1.2,-0.3 1.8,-1.7 l 2.9,-6.9 0.3,-0.1 2.9,7.2 c 0.5,1.1 0.8,1.3 1.6,1.4 v 0.3 h -3.8 z m -2.6,-3.5 h 2.4 l -1.2,-3.1 v 0 z"
   id="path218" />
			<path
   fill="#ffffff"
   d="m -276.8,288.6 v -0.3 c 1.3,-0.2 1.4,-0.3 1.4,-1.8 V 282 c 0,-1.5 -0.1,-1.5 -1.3,-1.8 V 280 h 4.2 v 0.3 c -1.3,0.2 -1.4,0.3 -1.4,1.8 v 4.7 c 0,0.8 0.1,1.1 0.4,1.3 0.3,0.1 0.7,0.2 1.3,0.2 0.8,0 1.4,-0.3 1.8,-0.6 0.2,-0.3 0.5,-0.7 0.9,-1.3 l 0.3,0.1 c -0.1,0.5 -0.4,1.9 -0.5,2.3 h -7.1 z"
   id="path220" />
			<path
   fill="#ffffff"
   d="m -267.4,282.1 c 0,-1.5 -0.1,-1.6 -1.3,-1.8 V 280 h 6.7 c 0,0.4 0.1,1.3 0.2,2.2 h -0.3 c -0.3,-0.7 -0.5,-1 -0.7,-1.3 -0.2,-0.2 -0.6,-0.5 -1.7,-0.5 h -1 c -0.5,0 -0.6,0 -0.6,0.5 v 2.9 h 1.5 c 1.2,0 1.3,-0.2 1.6,-1.1 h 0.3 v 2.8 h -0.3 c -0.3,-1 -0.4,-1.2 -1.6,-1.2 h -1.4 v 2.3 c 0,0.8 0.1,1.2 0.4,1.3 0.3,0.1 0.7,0.2 1.6,0.2 0.8,0 1.4,-0.3 1.8,-0.6 0.2,-0.3 0.5,-0.7 0.9,-1.3 l 0.3,0.1 c -0.1,0.5 -0.4,1.9 -0.5,2.3 h -7.2 v -0.3 c 1.3,-0.2 1.4,-0.3 1.4,-1.8 v -4.4 z"
   id="path222" />
			<path
   fill="#ffffff"
   d="m -245.7,279.3 c -0.8,-2.2 -2,-3 -4,-3 -3.4,0 -4.9,2.8 -4.9,5.9 0,3.7 1.9,6.4 5,6.4 2.2,0 3.2,-1.3 4.4,-3.3 l 0.3,0.1 c -0.3,0.8 -0.7,2.4 -1,3.1 -0.5,0.1 -2.3,0.5 -3.6,0.5 -4.9,0 -6.9,-3.3 -6.9,-6.4 0,-4 3.1,-6.7 7.2,-6.7 1.7,0 2.9,0.4 3.5,0.5 0.2,1.1 0.2,1.9 0.3,2.9 z"
   id="path224" />
			<path
   fill="#ffffff"
   d="m -244.3,284.5 c 0,-3.3 2.5,-4.7 4.6,-4.7 2.7,0 4.5,2 4.5,4.5 0,3 -2.3,4.6 -4.5,4.6 -3,0 -4.6,-2.3 -4.6,-4.4 z m 4.8,3.9 c 1.5,0 2.7,-1 2.7,-3.8 0,-2.4 -1.1,-4.4 -3,-4.4 -1.6,0 -2.7,1.3 -2.7,3.8 -0.1,2.7 1,4.4 3,4.4 z"
   id="path226" />
			<path
   fill="#ffffff"
   d="m -234.2,288.6 v -0.3 c 1.3,-0.2 1.4,-0.3 1.4,-1.8 V 282 c 0,-1.5 -0.1,-1.5 -1.3,-1.8 V 280 h 4.2 v 0.3 c -1.3,0.2 -1.4,0.3 -1.4,1.8 v 4.7 c 0,0.8 0.1,1.1 0.4,1.3 0.3,0.1 0.7,0.2 1.3,0.2 0.8,0 1.4,-0.3 1.8,-0.6 0.3,-0.3 0.5,-0.7 0.9,-1.3 l 0.3,0.1 c -0.1,0.5 -0.4,1.9 -0.5,2.3 h -7.1 z"
   id="path228" />
			<path
   fill="#ffffff"
   d="m -226.1,288.6 v -0.3 c 1.3,-0.2 1.4,-0.3 1.4,-1.8 V 282 c 0,-1.5 -0.1,-1.5 -1.3,-1.8 V 280 h 4.2 v 0.3 c -1.3,0.2 -1.4,0.3 -1.4,1.8 v 4.7 c 0,0.8 0.1,1.1 0.4,1.3 0.3,0.1 0.7,0.2 1.3,0.2 0.8,0 1.4,-0.3 1.8,-0.6 0.3,-0.3 0.5,-0.7 0.9,-1.3 l 0.3,0.1 c -0.1,0.5 -0.4,1.9 -0.5,2.3 h -7.1 z"
   id="path230" />
			<path
   fill="#ffffff"
   d="m -216.7,282.1 c 0,-1.5 -0.1,-1.6 -1.3,-1.8 V 280 h 6.7 c 0,0.4 0.1,1.3 0.2,2.2 h -0.3 c -0.3,-0.7 -0.5,-1 -0.7,-1.3 -0.2,-0.2 -0.6,-0.5 -1.7,-0.5 h -1 c -0.5,0 -0.6,0 -0.6,0.5 v 2.9 h 1.5 c 1.2,0 1.3,-0.2 1.6,-1.1 h 0.3 v 2.8 h -0.3 c -0.3,-1 -0.4,-1.2 -1.6,-1.2 h -1.5 v 2.3 c 0,0.8 0.1,1.2 0.4,1.3 0.3,0.1 0.7,0.2 1.6,0.2 0.8,0 1.4,-0.3 1.8,-0.6 0.2,-0.3 0.5,-0.7 0.9,-1.3 l 0.3,0.1 c -0.1,0.5 -0.4,1.9 -0.5,2.3 h -7.2 v -0.3 c 1.3,-0.2 1.4,-0.3 1.4,-1.8 z"
   id="path232" />
			<path
   fill="#ffffff"
   d="m -201.5,282.5 c -0.6,-1.8 -1.7,-2.3 -3,-2.3 -1.9,0 -3.3,1.5 -3.3,4 0,2.1 1,4.3 3.7,4.3 0.7,0 1.4,-0.1 1.4,-0.9 v -1.4 c 0,-0.9 -0.1,-1 -1.7,-1.3 v -0.3 h 4 v 0.3 c -0.8,0.2 -0.9,0.3 -0.9,1.3 v 1 c 0,0.5 0,0.9 0.1,1.2 -0.9,0.2 -2.1,0.5 -3.1,0.5 -3.1,0 -5.3,-1.8 -5.3,-4.4 0,-3 2.6,-4.6 5.4,-4.6 1.2,0 2.2,0.2 2.7,0.3 0.1,0.4 0.1,1.2 0.2,2.4 z"
   id="path234" />
			<path
   fill="#ffffff"
   d="m -198.2,282.1 c 0,-1.5 -0.1,-1.6 -1.3,-1.8 V 280 h 6.7 c 0,0.4 0.1,1.3 0.2,2.2 h -0.3 c -0.3,-0.7 -0.5,-1 -0.7,-1.3 -0.2,-0.2 -0.6,-0.5 -1.7,-0.5 h -1 c -0.5,0 -0.6,0 -0.6,0.5 v 2.9 h 1.5 c 1.2,0 1.3,-0.2 1.6,-1.1 h 0.3 v 2.8 h -0.3 c -0.3,-1 -0.4,-1.2 -1.6,-1.2 h -1.5 v 2.3 c 0,0.8 0.1,1.2 0.4,1.3 0.3,0.1 0.7,0.2 1.6,0.2 0.8,0 1.4,-0.3 1.8,-0.6 0.3,-0.3 0.5,-0.7 0.9,-1.3 l 0.3,0.1 c -0.1,0.5 -0.4,1.9 -0.5,2.3 h -7.2 v -0.3 c 1.3,-0.2 1.4,-0.3 1.4,-1.8 z"
   id="path236" />
		</g>
	</g>
</g>
<g
   id="Layer_2"
   transform="translate(-7,0.025)">
</g>
</svg>
